:SAMPLES-PER-SECOND 30
:FULLY-SPECIFIED
:DEGREES
131
root  23.3226671 39.64999942 55.90666523 -8.38891983 1.778419971 -5.038239956
lowerback  11.75520039 0.04836620018 0.6948109865
upperback  2.582849979 0.3326160014 4.022659779
thorax  -3.90783 0.1719529927 3.768019915
lowerneck  -14.98429966 -5.472390175 -16.25600052
upperneck  27.31830025 -6.686530113 11.30090046
head  12.4914999 -3.316450119 6.107890129
lclavicle  0 -5.34481991e-014 2.981770104e-014
lhumerus  -42.08560181 9.77200985 80.87830353
lradius  -2.752387756e-031 -2.212059149e-031 38.78839874
lwrist  -7.062250077e-031 -3.531125038e-031 2.872889996
lhand  -7.153077568e-031 -9.140299797 31.05340004
lfingers  90 7.125020027 -90
lthumb  94.5380368 14.67467675 72.6039579
rclavicle  0 -5.34481991e-014 2.981770104e-014
rhumerus  -35.22340012 -17.02490044 -73.40499878
rradius  3.309859657e-031 1.230314223e-031 20.39069939
rwrist  7.062250077e-031 -7.062250077e-031 15.13010025
rhand  -0 -19.29290009 10.44629955
rfingers  -90 -7.125020027 -90
rthumb  -86.65025469 -25.37710505 -82.22317157
rfemur  -3.112979889 0.4087480009 29.82920074
rtibia  -0 0 26.23460007
rfoot  -8.958561588e-032 -9.800930023 -4.756159782
rtoes  4.079132817 19.59629598 -102.0041419
lfemur  -10.55580044 5.950920105 -8.796199799
ltibia  -0 0 70.40910339
lfoot  4.462280456e-032 8.444210052 -3.944950104
ltoes  -4.787654737 -19.44132924 -104.1245094
132
root  23.3108896 39.65155534 56.22822318 -8.486399651 1.328269958 -5.25165987
lowerback  11.91769981 0.260935992 1.001119971
upperback  2.958430052 0.6416460276 4.014130116
thorax  -3.619499922 0.3185110092 3.536789894
lowerneck  -16.50930023 -5.729189873 -16.07080078
upperneck  27.7534008 -6.876619816 11.26049995
head  13.01480007 -3.352499962 6.041629791
lclavicle  0 -5.34481991e-014 2.981770104e-014
lhumerus  -41.45930099 9.989789963 81.09380341
lradius  -2.77059717e-031 -2.189208843e-031 38.31430054
lwrist  -7.062250077e-031 -0 2.956969976
lhand  -7.153242563e-031 -9.148509979 30.45140076
lfingers  90 7.125020027 -90
lthumb  94.35073302 14.10150171 72.65813091
rclavicle  0 -5.34481991e-014 2.981770104e-014
rhumerus  -34.03540039 -16.97380066 -73.91989899
rradius  3.302936707e-031 1.248780664e-031 20.71069908
rwrist  3.531125038e-031 -3.531125038e-031 14.45820045
rhand  -0 -19.01339912 10.46490002
rfingers  -90 -7.125020027 -90
rthumb  -86.51823639 -25.38856536 -81.92327647
rfemur  -2.211280107 0.7763569951 30.22870064
rtibia  -0 0 25.82430077
rfoot  -4.482500952e-032 -10.03639984 -4.830180168
rtoes  3.151618125 19.76017067 -99.25020087
lfemur  -11.40380001 6.287469864 -8.523249626
ltibia  -0 0 70.3585968
lfoot  4.445800022e-032 6.867129803 -3.823460102
ltoes  -4.652596891 -19.4728953 -103.719055
133
root  23.31266628 39.65844582 56.53777836 -8.485150337 1.028339982 -5.286970139
lowerback  11.6026001 0.3174499869 1.061069965
upperback  3.133919954 0.7047100067 4.001180172
thorax  -3.26564002 0.3468779922 3.477750063
lowerneck  -16.33639908 -5.656169891 -16.06489944
upperneck  27.62260056 -6.800670147 11.29409981
head  12.91139984 -3.316179991 6.061689854
lclavicle  0 -5.34481991e-014 2.981770104e-014
lhumerus  -41.42029953 10.38869953 81.16159821
lradius  -2.792178471e-031 -2.161615929e-031 37.7458992
lwrist  -1.059337512e-030 -3.531125038e-031 2.91257
lhand  -7.15487359e-031 -9.229260445 30.10810089
lfingers  90 7.125020027 -90
lthumb  94.22833536 13.78573912 72.76292002
rclavicle  0 -5.34481991e-014 2.981770104e-014
rhumerus  -33.23099899 -16.53910065 -74.28520203
rradius  3.300734595e-031 1.254589643e-031 20.81150055
rwrist  7.062250077e-031 -3.531125038e-031 13.90810013
rhand  -0 -18.57500076 10.77639961
rfingers  -90 -7.125020027 -90
rthumb  -86.26404008 -25.68518997 -81.43259305
rfemur  -1.525869966 0.8738520145 30.31369972
rtibia  -0 0 25.56130028
rfoot  -8.975147985e-032 -10.39599991 -4.651340008
rtoes  1.772008585 19.92454765 -95.18726397
lfemur  -12.37679958 6.387360096 -8.616689682
ltibia  -0 0 70.07589722
lfoot  4.431964604e-032 5.173989773 -3.713069916
ltoes  -4.362216662 -19.53751949 -102.8493882
134
root  23.32022209 39.66133238 56.84444397 -8.356499672 0.6597779989 -5.215209961
lowerback  11.64859962 0.4147750139 1.116369963
upperback  2.901730061 0.847423017 3.913009882
thorax  -3.539089918 0.4194360077 3.33375001
lowerneck  -15.86289978 -5.568669796 -16.0734005
upperneck  27.66620064 -6.74571991 11.26860046
head  12.81849957 -3.310110092 6.066430092
lclavicle  0 -5.34481991e-014 2.981770104e-014
lhumerus  -42.05730057 10.58279991 81.09829712
lradius  -2.808763195e-031 -2.140021811e-031 37.30410004
lwrist  -7.062250077e-031 -3.531125038e-031 2.894170046
lhand  -7.153958775e-031 -9.184060097 29.79299927
lfingers  90 7.125020027 -90
lthumb  94.14161359 13.47809178 72.74109993
rclavicle  0 -5.34481991e-014 2.981770104e-014
rhumerus  -33.02870178 -15.92520046 -74.52799988
rradius  3.301371373e-031 1.252913044e-031 20.78240013
rwrist  1.412450015e-030 -7.062250077e-031 13.21010017
rhand  -0 -18.25029945 10.96389961
rfingers  -90 -7.125020027 -90
rthumb  -86.07945432 -25.86115467 -81.07082011
rfemur  -1.085260034 0.9897720218 30.25379944
rtibia  -0 0 25.45079994
rfoot  -8.993663082e-032 -11.02040005 -4.373479843
rtoes  0.5872805531 19.99172862 -91.71732052
lfemur  -13.38510036 6.507309914 -8.876290321
ltibia  -0 0 69.62110138
lfoot  4.424422809e-032 3.951220036 -3.570869923
ltoes  -3.866433133 -19.63774133 -101.3706064
